<svg width="24" height="24" viewBox="0 0 24 24" fill="none" xmlns="http://www.w3.org/2000/svg">
<path d="M22.125 19.5C22.125 19.7984 22.0065 20.0845 21.7955 20.2955C21.5845 20.5065 21.2984 20.625 21 20.625H3C2.70163 20.625 2.41548 20.5065 2.2045 20.2955C1.99353 20.0845 1.875 19.7984 1.875 19.5V4.5C1.875 4.20163 1.99353 3.91548 2.2045 3.7045C2.41548 3.49353 2.70163 3.375 3 3.375C3.29837 3.375 3.58452 3.49353 3.7955 3.7045C4.00647 3.91548 4.125 4.20163 4.125 4.5V12.5203L8.25937 8.90625C8.45347 8.73643 8.70001 8.63846 8.95772 8.62873C9.21543 8.619 9.46866 8.69811 9.675 8.85281L14.9456 12.8053L20.2594 8.15625C20.3682 8.0476 20.4982 7.96242 20.6413 7.90598C20.7844 7.84954 20.9375 7.82304 21.0912 7.82811C21.2449 7.83318 21.396 7.86971 21.535 7.93546C21.6741 8.0012 21.7981 8.09476 21.8996 8.21035C22.0011 8.32594 22.0777 8.4611 22.1249 8.6075C22.1721 8.75389 22.1887 8.9084 22.1738 9.06148C22.1589 9.21456 22.1128 9.36295 22.0383 9.4975C21.9638 9.63205 21.8625 9.7499 21.7406 9.84375L15.7406 15.0938C15.5465 15.2636 15.3 15.3615 15.0423 15.3713C14.7846 15.381 14.5313 15.3019 14.325 15.1472L9.05438 11.1975L4.125 15.5109V18.375H21C21.2984 18.375 21.5845 18.4935 21.7955 18.7045C22.0065 18.9155 22.125 19.2016 22.125 19.5Z" fill="#3A3A3A" fill-opacity="0.7"/>
</svg>
