<svg width="24" height="26" viewBox="0 0 24 26" fill="none" xmlns="http://www.w3.org/2000/svg">
<path d="M23.982 6.79129C22.6481 4.36095 20.5847 2.4141 18.0941 1.2359C15.6034 0.0576978 12.8163 -0.289934 10.1411 0.243925C7.46588 0.777783 5.04309 2.16507 3.22762 4.2026C1.41215 6.24012 0.299395 8.82079 0.052353 11.5666C-0.194689 14.3124 0.436962 17.0791 1.85478 19.4614C3.27261 21.8437 5.40209 23.7163 7.93132 24.8051C10.4606 25.8939 13.2566 26.1416 15.9099 25.5118C18.5633 24.8821 20.9344 23.4081 22.6761 21.3057L12.804 12.9263L23.982 6.79129Z" fill="url(#paint0_linear_3_3400)"/>
<defs>
<linearGradient id="paint0_linear_3_3400" x1="6.55947" y1="1.54864" x2="17.2095" y2="26.8074" gradientUnits="userSpaceOnUse">
<stop stop-color="#4F46E5" stop-opacity="0.9"/>
<stop offset="0.5625" stop-color="#38BDF8"/>
<stop offset="1" stop-color="#38BDF8" stop-opacity="0.9"/>
</linearGradient>
</defs>
</svg>
