<svg width="25" height="25" viewBox="0 0 25 25" fill="none" xmlns="http://www.w3.org/2000/svg">
<path d="M12.3359 9.71484C11.5403 9.71484 10.7772 10.0309 10.2146 10.5935C9.65201 11.1561 9.33594 11.9192 9.33594 12.7148C9.33594 13.5105 9.65201 14.2736 10.2146 14.8362C10.7772 15.3988 11.5403 15.7148 12.3359 15.7148C13.1316 15.7148 13.8946 15.3988 14.4573 14.8362C15.0199 14.2736 15.3359 13.5105 15.3359 12.7148C15.3359 11.9192 15.0199 11.1561 14.4573 10.5935C13.8946 10.0309 13.1316 9.71484 12.3359 9.71484ZM12.3359 17.7148C11.0099 17.7148 9.73809 17.1881 8.8004 16.2504C7.86272 15.3127 7.33594 14.0409 7.33594 12.7148C7.33594 11.3888 7.86272 10.117 8.8004 9.17931C9.73809 8.24163 11.0099 7.71484 12.3359 7.71484C13.662 7.71484 14.9338 8.24163 15.8715 9.17931C16.8092 10.117 17.3359 11.3888 17.3359 12.7148C17.3359 14.0409 16.8092 15.3127 15.8715 16.2504C14.9338 17.1881 13.662 17.7148 12.3359 17.7148ZM12.3359 5.21484C7.33594 5.21484 3.06594 8.32484 1.33594 12.7148C3.06594 17.1048 7.33594 20.2148 12.3359 20.2148C17.3359 20.2148 21.6059 17.1048 23.3359 12.7148C21.6059 8.32484 17.3359 5.21484 12.3359 5.21484Z" fill="white"/>
</svg>
