<svg xmlns="http://www.w3.org/2000/svg" width="20" height="20" viewBox="0 0 37.242 37.242">
    <g id="Icon_feather-eye-off" data-name="Icon feather-eye-off" transform="translate(0.621 0.621)">
        <path id="Path_12395" data-name="Path 12395" d="M26.91,26.91A15.105,15.105,0,0,1,18,30C7.5,30,1.5,18,1.5,18A27.675,27.675,0,0,1,9.09,9.09m5.76-2.73A13.68,13.68,0,0,1,18,6C28.5,6,34.5,18,34.5,18a27.75,27.75,0,0,1-3.24,4.785m-10.08-1.6a4.5,4.5,0,1,1-6.36-6.36" fill="none" stroke="currentColor" stroke-linecap="round" stroke-linejoin="round" stroke-width="3"/>
        <path id="Path_12396" data-name="Path 12396" d="M1.5,1.5l33,33" fill="none" stroke="currentColor" stroke-linecap="round" stroke-linejoin="round" stroke-width="3"/>
    </g>
</svg>
