<svg width="24" height="24" viewBox="0 0 24 24" fill="none" xmlns="http://www.w3.org/2000/svg">
  <path
    d="M13.7 18.3996C13.2 18.5996 12.6 18.5996 12 18.5996C6.3 18.5996 3 12.0996 3 12.0996C3.5 11.1996 4.1 10.2996 4.8 9.49961M10.3 10.3996C10.5 10.1996 10.8 9.99961 11.1 9.79961C11.4 9.69961 11.7 9.59961 12.1 9.59961C12.4 9.59961 12.8 9.59961 13.1 9.79961C13.4 9.89961 13.7 10.0996 13.9 10.2996C14 10.4996 14.2 10.7996 14.3 11.0996C14.4 11.3996 14.5 11.6996 14.5 12.0996C14.5 12.3996 14.4 12.7996 14.3 13.0996C14.2 13.2996 14 13.5996 13.7 13.7996M7.1 7.19961C8.5 6.09961 10.2 5.49961 12 5.49961C17.7 5.49961 21 11.9996 21 11.9996C20 13.8996 18.6 15.5996 16.9 16.8996L7.1 7.19961Z"
    fill="#E6F1FB" />
  <path
    d="M13.7 18.3996C13.2 18.5996 12.6 18.5996 12 18.5996C6.3 18.5996 3 12.0996 3 12.0996C3.5 11.1996 4.1 10.2996 4.8 9.49961M10.3 10.3996C10.5 10.1996 10.8 9.99961 11.1 9.79961C11.4 9.69961 11.7 9.59961 12.1 9.59961C12.4 9.59961 12.8 9.59961 13.1 9.79961C13.4 9.89961 13.7 10.0996 13.9 10.2996C14 10.4996 14.2 10.7996 14.3 11.0996C14.4 11.3996 14.5 11.6996 14.5 12.0996C14.5 12.3996 14.4 12.7996 14.3 13.0996C14.2 13.2996 14 13.5996 13.7 13.7996M7.1 7.19961C8.5 6.09961 10.2 5.49961 12 5.49961C17.7 5.49961 21 11.9996 21 11.9996C20 13.8996 18.6 15.5996 16.9 16.8996L7.1 7.19961Z"
    stroke="#103345" strokeWidth="2" strokeLinecap="round" strokeLinejoin="round" />
  <path d="M21 21L3 3" stroke="#103345" strokeWidth="2" strokeLinecap="round" strokeLinejoin="round" />
</svg>