<svg width="30" height="30" viewBox="0 0 40 30" fill="none" xmlns="http://www.w3.org/2000/svg">
<path d="M11.5787 15.3075C8.99116 15.0688 5.79991 15.1538 4.04491 16.1675L3.85991 16.275C3.28491 16.6063 2.85991 17.1538 2.82241 17.8163C2.76866 18.81 2.88491 20.4075 3.83866 22.06C5.53116 24.9913 8.46866 26.3387 9.71241 26.7987C10.0824 26.9362 10.4874 26.8812 10.8287 26.685C11.4574 26.3225 11.7249 25.5575 11.5587 24.85C11.0962 22.875 10.9912 20.0375 12.4737 17.8313C12.1466 17.503 11.8967 17.1062 11.7419 16.6695C11.5871 16.2328 11.5313 15.7672 11.5787 15.3062V15.3075ZM17.7012 16.455C17.5851 16.8772 17.3815 17.2703 17.1037 17.6089C16.8259 17.9474 16.4801 18.2237 16.0887 18.42C17.1737 20.8 18.8624 23.5738 20.6387 24.5988L20.8237 24.7062C21.3987 25.0375 22.0862 25.1312 22.6774 24.8312C24.0016 24.1593 25.1021 23.117 25.8449 21.8313C27.5374 18.9 27.2362 15.6812 27.0124 14.375C26.9768 14.1844 26.8993 14.004 26.7856 13.8469C26.6719 13.6897 26.5248 13.5597 26.3549 13.4662C25.7262 13.1025 24.9312 13.2537 24.4012 13.75C22.8912 15.1675 20.4174 16.71 17.7012 16.455ZM13.9649 12.585C14.4324 12.474 14.9192 12.4723 15.3875 12.5801C15.8558 12.6878 16.2929 12.9021 16.6649 13.2062C18.1649 11.0837 19.6874 8.2775 19.6874 6.25V6.0375C19.6874 5.375 19.4249 4.7325 18.8699 4.37C17.6259 3.55839 16.1728 3.12584 14.6874 3.125C11.3024 3.125 8.66616 4.99625 7.64616 5.8425C7.49863 5.96877 7.38096 6.12621 7.30163 6.30346C7.2223 6.48071 7.18329 6.67335 7.18741 6.8675C7.18741 7.5925 7.71491 8.205 8.41116 8.41625C10.3174 8.99125 12.7687 10.2812 13.9649 12.585Z" stroke="#003049" stroke-width="1.875" stroke-linejoin="round"/>
<path d="M17.8125 15.625C17.8125 16.4538 17.4833 17.2487 16.8972 17.8347C16.3112 18.4208 15.5163 18.75 14.6875 18.75C13.8587 18.75 13.0638 18.4208 12.4778 17.8347C11.8917 17.2487 11.5625 16.4538 11.5625 15.625C11.5625 14.7962 11.8917 14.0013 12.4778 13.4153C13.0638 12.8292 13.8587 12.5 14.6875 12.5C15.5163 12.5 16.3112 12.8292 16.8972 13.4153C17.4833 14.0013 17.8125 14.7962 17.8125 15.625Z" stroke="#003049" stroke-width="1.875" stroke-linejoin="round"/>
</svg>
