<svg width="24" height="24" viewBox="0 0 24 24" fill="none" xmlns="http://www.w3.org/2000/svg">
<path d="M22.546 1.45406C22.4415 1.34918 22.3173 1.26596 22.1805 1.20918C22.0438 1.1524 21.8972 1.12317 21.7491 1.12317C21.601 1.12317 21.4544 1.1524 21.3177 1.20918C21.1809 1.26596 21.0567 1.34918 20.9522 1.45406L16.3069 6.10218L16.0688 5.86312C15.4353 5.23138 14.5771 4.87662 13.6824 4.87662C12.7877 4.87662 11.9295 5.23138 11.296 5.86312L9.37504 7.78124L9.04597 7.45124C8.94133 7.3466 8.81709 7.26359 8.68037 7.20695C8.54364 7.15032 8.39709 7.12117 8.2491 7.12117C7.95021 7.12117 7.66357 7.2399 7.45222 7.45124C7.34758 7.55589 7.26457 7.68012 7.20793 7.81685C7.1513 7.95358 7.12215 8.10013 7.12215 8.24812C7.12215 8.54701 7.24088 8.83365 7.45222 9.04499L7.78129 9.37499L5.86316 11.2959C5.23028 11.9289 4.87473 12.7873 4.87473 13.6823C4.87473 14.5774 5.23028 15.4358 5.86316 16.0687L6.10222 16.3069L1.4541 20.9541C1.24276 21.1654 1.12402 21.452 1.12402 21.7509C1.12402 22.0498 1.24276 22.3365 1.4541 22.5478C1.66544 22.7591 1.95209 22.8779 2.25097 22.8779C2.54986 22.8779 2.83651 22.7591 3.04785 22.5478L7.69504 17.8997L7.93316 18.1387C8.56682 18.7703 9.42496 19.1249 10.3196 19.1249C11.2142 19.1249 12.0723 18.7703 12.706 18.1387L14.625 16.2187L14.9541 16.5487C15.1654 16.7601 15.4521 16.8788 15.751 16.8788C16.0499 16.8788 16.3365 16.7601 16.5478 16.5487C16.7592 16.3374 16.8779 16.0508 16.8779 15.7519C16.8779 15.453 16.7592 15.1663 16.5478 14.955L16.2188 14.625L18.1397 12.7041C18.7726 12.0711 19.1282 11.2127 19.1282 10.3176C19.1282 9.42258 18.7726 8.56417 18.1397 7.93124L17.9007 7.69312L22.5488 3.04593C22.6532 2.94126 22.736 2.81704 22.7923 2.68037C22.8487 2.5437 22.8776 2.39725 22.8773 2.24941C22.8771 2.10157 22.8477 1.95523 22.7908 1.81875C22.734 1.68228 22.6508 1.55835 22.546 1.45406ZM11.1132 16.5478C11.0086 16.6527 10.8845 16.7359 10.7477 16.7927C10.611 16.8495 10.4644 16.8787 10.3163 16.8787C10.1682 16.8787 10.0216 16.8495 9.88487 16.7927C9.74812 16.7359 9.62393 16.6527 9.51941 16.5478L7.4541 14.4778C7.34922 14.3733 7.266 14.2491 7.20922 14.1124C7.15244 13.9756 7.12321 13.829 7.12321 13.6809C7.12321 13.5329 7.15244 13.3863 7.20922 13.2495C7.266 13.1128 7.34922 12.9886 7.4541 12.8841L9.37504 10.9687L13.0313 14.625L11.1132 16.5478ZM16.5507 11.115L14.625 13.0312L10.9688 9.37499L12.8897 7.45406C12.9942 7.34918 13.1184 7.26596 13.2552 7.20918C13.3919 7.1524 13.5385 7.12317 13.6866 7.12317C13.8347 7.12317 13.9813 7.1524 14.118 7.20918C14.2548 7.26596 14.379 7.34918 14.4835 7.45406L16.5516 9.52218C16.6565 9.6267 16.7397 9.75089 16.7965 9.88764C16.8533 10.0244 16.8825 10.171 16.8825 10.3191C16.8825 10.4671 16.8533 10.6137 16.7965 10.7505C16.7397 10.8872 16.6565 11.0114 16.5516 11.1159L16.5507 11.115ZM7.9941 3.12843C7.86567 2.86225 7.84715 2.55622 7.94253 2.27648C8.03791 1.99675 8.23954 1.76579 8.50384 1.63352C8.76813 1.50125 9.07387 1.47829 9.35495 1.56962C9.63603 1.66094 9.86989 1.8592 10.006 2.12156L10.756 3.62156C10.8246 3.75392 10.8663 3.89861 10.8785 4.04721C10.8908 4.19582 10.8733 4.34537 10.8273 4.48718C10.7812 4.62899 10.7074 4.76023 10.6102 4.87327C10.5129 4.9863 10.3942 5.07887 10.2608 5.14561C10.1275 5.21234 9.9822 5.2519 9.83343 5.26199C9.68467 5.27207 9.53538 5.25249 9.39425 5.20436C9.25312 5.15624 9.12297 5.08054 9.01135 4.98167C8.89974 4.8828 8.80889 4.76272 8.7441 4.62843L7.9941 3.12843ZM1.6191 8.49656C1.75264 8.22979 1.98668 8.02698 2.26973 7.93275C2.55279 7.83852 2.86168 7.86057 3.12847 7.99406L4.62847 8.74406C4.76277 8.80885 4.88284 8.8997 4.98171 9.01131C5.08059 9.12292 5.15628 9.25308 5.20441 9.39421C5.25253 9.53534 5.27212 9.68462 5.26203 9.83339C5.25194 9.98216 5.21238 10.1274 5.14565 10.2608C5.07892 10.3941 4.98634 10.5129 4.87331 10.6101C4.76028 10.7074 4.62904 10.7812 4.48723 10.8272C4.34542 10.8733 4.19586 10.8907 4.04725 10.8785C3.89865 10.8662 3.75396 10.8246 3.6216 10.7559L2.1216 10.0059C1.85483 9.87239 1.65203 9.63835 1.55779 9.3553C1.46356 9.07225 1.48561 8.76335 1.6191 8.49656ZM22.381 15.5034C22.2474 15.7702 22.0134 15.973 21.7303 16.0672C21.4473 16.1615 21.1384 16.1394 20.8716 16.0059L19.3716 15.2559C19.1092 15.1198 18.911 14.886 18.8197 14.6049C18.7283 14.3238 18.7513 14.0181 18.8836 13.7538C19.0158 13.4895 19.2468 13.2879 19.5265 13.1925C19.8063 13.0971 20.1123 13.1156 20.3785 13.2441L21.8785 13.9941C22.1452 14.1276 22.348 14.3616 22.4423 14.6447C22.5365 14.9277 22.5145 15.2366 22.381 15.5034ZM16.006 20.8716C16.0746 21.0039 16.1163 21.1486 16.1285 21.2972C16.1408 21.4458 16.1233 21.5954 16.0773 21.7372C16.0312 21.879 15.9574 22.0102 15.8602 22.1233C15.7629 22.2363 15.6442 22.3289 15.5108 22.3956C15.3775 22.4623 15.2322 22.5019 15.0834 22.512C14.9347 22.5221 14.7854 22.5025 14.6443 22.4544C14.5031 22.4062 14.373 22.3305 14.2614 22.2317C14.1497 22.1328 14.0589 22.0127 13.9941 21.8784L13.2441 20.3784C13.1157 20.1122 13.0971 19.8062 13.1925 19.5265C13.2879 19.2468 13.4895 19.0158 13.7538 18.8835C14.0181 18.7512 14.3239 18.7283 14.6049 18.8196C14.886 18.9109 15.1199 19.1092 15.256 19.3716L16.006 20.8716Z" fill="#3A3A3A" fill-opacity="0.7"/>
</svg>
