<svg width="19" height="20" viewBox="0 0 19 20" fill="none" xmlns="http://www.w3.org/2000/svg">
<path d="M18.382 10.0279C18.3818 11.8457 17.8426 13.6226 16.8326 15.1339C15.8225 16.6452 14.387 17.8231 12.7076 18.5186C11.0281 19.2141 9.18013 19.396 7.39732 19.0412C5.6145 18.6865 3.97692 17.811 2.69163 16.5256C1.40635 15.2402 0.531089 13.6025 0.176533 11.8196C-0.178022 10.0368 0.00404859 8.18884 0.699723 6.50946C1.3954 4.83009 2.57343 3.39471 4.08486 2.38483C5.59629 1.37496 7.37324 0.835938 9.191 0.835938C10.3981 0.835937 11.5933 1.0737 12.7085 1.53566C13.8236 1.99761 14.8369 2.6747 15.6904 3.52827C16.5439 4.38184 17.2208 5.39517 17.6827 6.51039C18.1445 7.62561 18.3821 8.82087 18.382 10.0279ZM8.128 14.8939L14.947 8.07394C15.0021 8.01887 15.0459 7.95347 15.0757 7.88149C15.1055 7.80951 15.1209 7.73236 15.1209 7.65444C15.1209 7.57652 15.1055 7.49937 15.0757 7.42739C15.0459 7.3554 15.0021 7.29001 14.947 7.23494L14.108 6.39594C14.0529 6.34082 13.9875 6.29709 13.9156 6.26726C13.8436 6.23742 13.7664 6.22207 13.6885 6.22207C13.6106 6.22207 13.5334 6.23742 13.4615 6.26726C13.3895 6.29709 13.3241 6.34082 13.269 6.39594L7.708 11.9589L5.108 9.35894C5.05293 9.30382 4.98754 9.26009 4.91556 9.23026C4.84358 9.20042 4.76642 9.18507 4.6885 9.18507C4.61059 9.18507 4.53343 9.20042 4.46145 9.23026C4.38947 9.26009 4.32408 9.30382 4.269 9.35894L3.437 10.2009C3.38188 10.256 3.33816 10.3214 3.30832 10.3934C3.27849 10.4654 3.26313 10.5425 3.26313 10.6204C3.26313 10.6984 3.27849 10.7755 3.30832 10.8475C3.33816 10.9195 3.38188 10.9849 3.437 11.0399L7.289 14.8939C7.34408 14.9491 7.40947 14.9928 7.48145 15.0226C7.55343 15.0525 7.63059 15.0678 7.7085 15.0678C7.78642 15.0678 7.86358 15.0525 7.93556 15.0226C8.00754 14.9928 8.07293 14.9491 8.128 14.8939Z" fill="#51AF33"/>
</svg>