<svg width="14" height="14" viewBox="0 0 14 14" fill="none" xmlns="http://www.w3.org/2000/svg">
<path d="M5.5 4C5.5 3.80222 5.55865 3.60888 5.66853 3.44443C5.77841 3.27998 5.93459 3.15181 6.11732 3.07612C6.30005 3.00043 6.50111 2.98063 6.69509 3.01921C6.88907 3.0578 7.06726 3.15304 7.20711 3.29289C7.34696 3.43275 7.4422 3.61093 7.48079 3.80491C7.51937 3.99889 7.49957 4.19996 7.42388 4.38268C7.3482 4.56541 7.22002 4.72159 7.05557 4.83147C6.89112 4.94135 6.69778 5 6.5 5C6.23479 5 5.98043 4.89464 5.7929 4.70711C5.60536 4.51957 5.5 4.26522 5.5 4ZM13.5 6.75C13.5 8.08502 13.1041 9.39007 12.3624 10.5001C11.6207 11.6101 10.5665 12.4753 9.33312 12.9862C8.09971 13.4971 6.74252 13.6308 5.43314 13.3703C4.12377 13.1098 2.92104 12.467 1.97703 11.523C1.03303 10.579 0.390153 9.37623 0.129702 8.06686C-0.130748 6.75749 0.00292468 5.40029 0.513816 4.16689C1.02471 2.93349 1.88987 1.87928 2.9999 1.13758C4.10994 0.395881 5.41498 0 6.75 0C8.53961 0.00198514 10.2553 0.713781 11.5208 1.97922C12.7862 3.24466 13.498 4.9604 13.5 6.75ZM12 6.75C12 5.71165 11.6921 4.69661 11.1152 3.83326C10.5383 2.9699 9.7184 2.29699 8.75909 1.89963C7.79978 1.50227 6.74418 1.3983 5.72578 1.60088C4.70738 1.80345 3.77192 2.30346 3.03769 3.03769C2.30347 3.77191 1.80345 4.70738 1.60088 5.72578C1.39831 6.74418 1.50228 7.79978 1.89964 8.75909C2.297 9.7184 2.9699 10.5383 3.83326 11.1152C4.69662 11.6921 5.71165 12 6.75 12C8.14193 11.9985 9.47643 11.4449 10.4607 10.4607C11.4449 9.47642 11.9985 8.14193 12 6.75ZM7.5 9.0425V7C7.5 6.66848 7.36831 6.35054 7.13389 6.11612C6.89947 5.8817 6.58152 5.75 6.25 5.75C6.07288 5.74974 5.90139 5.81217 5.76588 5.92623C5.63038 6.0403 5.53962 6.19864 5.50968 6.37321C5.47974 6.54778 5.51254 6.72731 5.60229 6.88001C5.69203 7.03271 5.83292 7.14872 6 7.2075V9.25C6 9.58152 6.1317 9.89946 6.36612 10.1339C6.60054 10.3683 6.91848 10.5 7.25 10.5C7.42712 10.5003 7.59862 10.4378 7.73412 10.3238C7.86962 10.2097 7.96038 10.0514 7.99032 9.87679C8.02027 9.70222 7.98746 9.52269 7.89772 9.36999C7.80798 9.21729 7.66709 9.10128 7.5 9.0425Z" fill="#4F46E5"/>
</svg>
